<svg width="28" height="28" viewBox="0 0 28 28" fill="none" xmlns="http://www.w3.org/2000/svg">
<path fill-rule="evenodd" clip-rule="evenodd" d="M0 1.99654C0 0.894181 0.922111 0 2.05965 0H25.8119C26.9494 0 27.8715 0.894181 27.8715 1.99654V25.875C27.8715 26.9777 26.9494 27.8715 25.8119 27.8715H2.05965C0.922111 27.8715 0 26.9777 0 25.875V1.99654ZM8.44899 23.3309V10.7453H4.23924V23.3309H8.44899ZM6.34409 9.02697C7.81212 9.02697 8.72584 8.06053 8.72584 6.85278C8.69848 5.61783 7.81212 4.67822 6.37194 4.67822C4.93192 4.67822 3.99039 5.61783 3.99039 6.85278C3.99039 8.06053 4.90391 9.02697 6.31666 9.02697H6.34409ZM14.9878 23.3309H10.7781C10.7781 23.3309 10.8334 11.9263 10.7782 10.7453H14.9879V12.5272C14.9784 12.5417 14.969 12.5562 14.9598 12.5705H14.9879V12.5272C15.5474 11.6696 16.5486 10.45 18.7818 10.45C21.5514 10.45 23.6283 12.2488 23.6283 16.1145V23.3309H19.4189V16.5979C19.4189 14.906 18.8096 13.7519 17.2863 13.7519C16.1233 13.7519 15.4306 14.5302 15.1263 15.2818C15.0151 15.5506 14.9878 15.9264 14.9878 16.3026V23.3309Z" fill="#565656"/>
</svg>
