<svg width="29" height="28" viewBox="0 0 29 28" fill="none" xmlns="http://www.w3.org/2000/svg">
<path fill-rule="evenodd" clip-rule="evenodd" d="M6.96147 0.0334487C7.29222 0.00600361 8.99378 0 14.8118 0H19.3476C22.6164 0.0056809 22.8024 0.032628 23.4234 0.122578L23.4594 0.127791C24.803 0.321622 25.9305 0.857658 26.8524 1.73847C27.369 2.2357 27.7249 2.72199 28.0453 3.37317C28.4359 4.16865 28.6277 4.92124 28.7156 6.04049C28.7345 6.28063 28.743 10.1024 28.743 13.9267C28.743 17.7503 28.7351 21.5791 28.7163 21.8193C28.6294 22.9207 28.4376 23.6797 28.0593 24.4602C27.3069 26.0126 25.9243 27.1447 24.2544 27.5756C23.6489 27.7322 23.1012 27.8057 22.158 27.8501C21.8215 27.8672 18.3018 27.8715 14.782 27.8715C11.2623 27.8715 7.74473 27.8608 7.39962 27.8458C6.58506 27.8072 5.95057 27.7257 5.37609 27.5778C3.71698 27.149 2.30866 25.9997 1.57127 24.4688C1.18543 23.669 1.00323 22.9379 0.906771 21.7757C0.878904 21.4455 0.872474 19.7452 0.872474 13.9303C0.872474 13.2178 0.87219 12.5713 0.871933 11.9836C0.871482 10.9553 0.87111 10.107 0.872474 9.40079C0.877953 6.12746 0.904566 5.94381 0.99509 5.31913C0.996642 5.30842 0.998212 5.29759 0.999801 5.2866C1.19379 3.94394 1.72968 2.8144 2.6139 1.89628C3.09942 1.39284 3.59137 1.03369 4.21514 0.723863C5.02455 0.320764 5.76751 0.132723 6.96147 0.0334487ZM10.5633 3.70718C11.6608 3.65723 12.0114 3.645 14.8058 3.645H14.8026C17.5978 3.645 17.9472 3.65723 19.0447 3.70718C20.14 3.75736 20.8881 3.93082 21.5441 4.18533C22.2214 4.44799 22.7938 4.79963 23.3661 5.37211C23.9384 5.94417 24.29 6.51837 24.5536 7.19528C24.8066 7.84967 24.9802 8.59755 25.0316 9.69321C25.0809 10.791 25.0938 11.1418 25.0938 13.9369C25.0938 16.732 25.0809 17.0819 25.0316 18.1797C24.9802 19.275 24.8066 20.0231 24.5536 20.6777C24.29 21.3544 23.9384 21.9286 23.3661 22.5006C22.7944 23.0731 22.2212 23.4256 21.5447 23.6885C20.8901 23.943 20.1415 24.1164 19.0462 24.1666C17.9487 24.2166 17.5991 24.2288 14.8045 24.2288C12.0104 24.2288 11.6599 24.2166 10.5624 24.1666C9.46725 24.1164 8.71936 23.943 8.06472 23.6885C7.38843 23.4256 6.81438 23.0731 6.24269 22.5006C5.67058 21.9286 5.31903 21.3544 5.05602 20.6775C4.80179 20.0231 4.62838 19.2752 4.578 18.1795C4.52827 17.0817 4.51584 16.732 4.51584 13.9369C4.51584 11.1418 4.5287 10.7908 4.57779 9.693C4.62709 8.59777 4.80072 7.84967 5.0558 7.19507C5.31946 6.51837 5.671 5.94417 6.24334 5.37211C6.81524 4.79984 7.38928 4.4482 8.06601 4.18533C8.72022 3.93082 9.46789 3.75736 10.5633 3.70718ZM14.4629 5.49959C14.2548 5.4995 14.062 5.49941 13.8828 5.49969V5.49712C11.9651 5.49926 11.5973 5.51213 10.6481 5.55501C9.64495 5.60111 9.10027 5.76835 8.73758 5.90986C8.25742 6.09683 7.91445 6.31983 7.55434 6.68004C7.19422 7.04026 6.97086 7.38332 6.78437 7.86361C6.64354 8.2264 6.47591 8.77101 6.43004 9.77447C6.38074 10.8594 6.37088 11.1836 6.37088 13.932C6.37088 16.6803 6.38074 17.0062 6.43004 18.0912C6.4757 19.0946 6.64354 19.6393 6.78437 20.0016C6.97129 20.4821 7.19422 20.8243 7.55434 21.1845C7.91445 21.5448 8.25742 21.7677 8.73758 21.9543C9.10049 22.0952 9.64495 22.2628 10.6481 22.3091C11.7328 22.3585 12.0584 22.3692 14.8058 22.3692C17.553 22.3692 17.8788 22.3585 18.9634 22.3091C19.9666 22.2633 20.5115 22.096 20.8738 21.9545C21.3542 21.768 21.696 21.545 22.0562 21.1848C22.4163 20.8248 22.6396 20.4828 22.8261 20.0025C22.967 19.6401 23.1346 19.0955 23.1805 18.092C23.2298 17.0071 23.2405 16.6812 23.2405 13.9345C23.2405 11.1879 23.2298 10.862 23.1805 9.77705C23.1348 8.77359 22.967 8.22897 22.8261 7.86661C22.6392 7.38632 22.4163 7.04326 22.0562 6.68304C21.6963 6.32283 21.3539 6.09984 20.8738 5.9133C20.5111 5.77243 19.9666 5.60475 18.9634 5.55887C17.8786 5.50955 17.553 5.49969 14.8058 5.49969C14.687 5.49969 14.5728 5.49964 14.4629 5.49959ZM19.0633 8.44317C19.0633 7.76112 19.6164 7.20857 20.298 7.20857V7.20814C20.9797 7.20814 21.5327 7.76133 21.5327 8.44317C21.5327 9.12501 20.9797 9.6782 20.298 9.6782C19.6164 9.6782 19.0633 9.12501 19.0633 8.44317ZM9.52191 13.9369C9.52191 11.0181 11.8878 8.65158 14.8058 8.65158C17.7238 8.65158 20.0888 11.0181 20.0888 13.9369C20.0888 16.8557 17.7238 19.2211 14.8058 19.2211C11.8878 19.2211 9.52191 16.8557 9.52191 13.9369ZM18.2355 13.9369C18.2355 12.0421 16.6998 10.5063 14.8058 10.5063C12.9115 10.5063 11.3761 12.0421 11.3761 13.9369C11.3761 15.8315 12.9115 17.3675 14.8058 17.3675C16.6998 17.3675 18.2355 15.8315 18.2355 13.9369Z" fill="#565656"/>
</svg>
